<?xml version="1.0" standalone="no"?><!DOCTYPE svg PUBLIC "-//W3C//DTD SVG 1.1//EN" "http://www.w3.org/Graphics/SVG/1.1/DTD/svg11.dtd"><svg t="1639988959270" class="icon" viewBox="0 0 1024 1024" version="1.1" xmlns="http://www.w3.org/2000/svg" p-id="6639" width="16" height="16" xmlns:xlink="http://www.w3.org/1999/xlink"><defs><style type="text/css"></style></defs><path d="M256.535624 283.849307a28.384931 28.384931 0 0 0 0 56.769861h397.38903a28.384931 28.384931 0 0 0 0-56.769861z m170.309584 283.849307h-170.309584a28.384931 28.384931 0 0 0 0 56.769862h170.309584a28.384931 28.384931 0 0 0 0-56.769862z m-56.769862 340.619169H171.380832a56.769861 56.769861 0 0 1-56.769862-56.769862V170.309584a56.769861 56.769861 0 0 1 56.769862-56.769861h567.698614a56.769861 56.769861 0 0 1 56.769861 56.769861v255.464377a28.384931 28.384931 0 0 0 56.769861 0v-283.849307A85.154792 85.154792 0 0 0 767.464376 56.769861h-624.468475A85.154792 85.154792 0 0 0 57.841109 141.924654v738.008198A85.154792 85.154792 0 0 0 142.995901 965.087644h227.079445a28.384931 28.384931 0 0 0 0-56.769861z m585.86497 56.769861l-84.587093-82.316299a199.829912 199.829912 0 1 0-44.848191 44.84819L909.38903 1011.63893a33.494218 33.494218 0 1 0 47.118985-47.118985z m-245.245801-56.769861a141.924654 141.924654 0 1 1 141.924653-141.924654 141.924654 141.924654 0 0 1-141.924653 141.924654z m211.183884 113.539722z" fill="#252B3A" p-id="6640"></path></svg>