<?xml version="1.0" standalone="no"?><!DOCTYPE svg PUBLIC "-//W3C//DTD SVG 1.1//EN" "http://www.w3.org/Graphics/SVG/1.1/DTD/svg11.dtd"><svg t="1639988616302" class="icon" viewBox="0 0 1024 1024" version="1.1" xmlns="http://www.w3.org/2000/svg" p-id="2745" xmlns:xlink="http://www.w3.org/1999/xlink" width="25" height="25"><defs><style type="text/css"></style></defs><path d="M905.6 908.8H118.4a106.88 106.88 0 0 1-106.24-106.88V560.64a106.88 106.88 0 0 1 106.24-106.88h243.84a35.2 35.2 0 0 1 35.2 35.84 114.56 114.56 0 0 0 229.12 0 35.2 35.2 0 0 1 35.2-35.84h243.84a106.88 106.88 0 0 1 106.24 106.88v241.28a106.88 106.88 0 0 1-106.24 106.88z m-787.2-384a35.84 35.84 0 0 0-35.2 35.84v241.28a35.84 35.84 0 0 0 35.2 35.84h787.2a35.84 35.84 0 0 0 35.2-35.84V560.64a35.84 35.84 0 0 0-35.2-35.84h-211.84a184.96 184.96 0 0 1-363.52 0z" fill="#707070" p-id="2746"></path><path d="M53.76 567.68H41.6a35.84 35.84 0 0 1-21.76-45.44L140.8 174.08a35.84 35.84 0 0 1 33.92-23.68h341.76a35.84 35.84 0 1 1 0 71.04H199.68l-112.64 320a35.2 35.2 0 0 1-33.28 26.24z" fill="#707070" p-id="2747"></path><path d="M971.52 567.68a35.84 35.84 0 0 1-33.92-23.68l-112.64-320H508.16a35.84 35.84 0 0 1 0-71.04h342.4a34.56 34.56 0 0 1 33.28 23.68l120.96 343.68a35.2 35.2 0 0 1-21.76 45.44z" fill="#707070" p-id="2748"></path></svg>